<mxfile host="app.diagrams.net" modified="2022-06-30T14:18:28.376Z" agent="5.0 (Macintosh; Intel Mac OS X 10_15_7) AppleWebKit/537.36 (KHTML, like Gecko) Chrome/103.0.0.0 Safari/537.36" etag="q8hlKHkpeuMZ7zqxqmKf" version="20.0.4" type="github">
  <diagram id="TGUJG3q0h4wug02qJyAX" name="Page-1">
    <mxGraphModel dx="1204" dy="539" grid="1" gridSize="10" guides="1" tooltips="1" connect="1" arrows="1" fold="1" page="1" pageScale="1" pageWidth="827" pageHeight="1169" math="0" shadow="0">
      <root>
        <mxCell id="0" />
        <mxCell id="1" parent="0" />
        <mxCell id="OdlJfJ64PCM52wQeaOQS-1" value="AWS WAF" style="sketch=0;outlineConnect=0;fontColor=#232F3E;gradientColor=none;strokeColor=#ffffff;fillColor=#232F3E;dashed=0;verticalLabelPosition=middle;verticalAlign=bottom;align=center;html=1;whiteSpace=wrap;fontSize=10;fontStyle=1;spacing=3;shape=mxgraph.aws4.productIcon;prIcon=mxgraph.aws4.waf;" vertex="1" parent="1">
          <mxGeometry x="267.5" y="60" width="47" height="76" as="geometry" />
        </mxCell>
        <mxCell id="OdlJfJ64PCM52wQeaOQS-2" value="Let to monitor the http and https &lt;br&gt;request that are &lt;b&gt;&lt;font color=&quot;#ff3333&quot;&gt;fowarded to&lt;/font&gt;&lt;/b&gt;&amp;nbsp;" style="text;html=1;align=left;verticalAlign=middle;resizable=0;points=[];autosize=1;strokeColor=none;fillColor=none;" vertex="1" parent="1">
          <mxGeometry x="215.5" y="136" width="190" height="40" as="geometry" />
        </mxCell>
        <mxCell id="OdlJfJ64PCM52wQeaOQS-3" value="" style="strokeWidth=1;html=1;shape=mxgraph.flowchart.annotation_1;align=left;pointerEvents=1;fontColor=#000033;fillColor=none;strokeColor=#3399FF;" vertex="1" parent="1">
          <mxGeometry x="214" y="140.5" width="12" height="30" as="geometry" />
        </mxCell>
        <mxCell id="OdlJfJ64PCM52wQeaOQS-4" value="" style="strokeWidth=1;html=1;shape=mxgraph.flowchart.annotation_1;align=left;pointerEvents=1;fontColor=#000033;fillColor=none;direction=west;strokeColor=#3399FF;" vertex="1" parent="1">
          <mxGeometry x="376" y="140.5" width="12" height="30" as="geometry" />
        </mxCell>
        <mxCell id="OdlJfJ64PCM52wQeaOQS-5" value="" style="strokeWidth=1;html=1;shape=mxgraph.flowchart.annotation_1;align=left;pointerEvents=1;direction=south;" vertex="1" parent="1">
          <mxGeometry x="154" y="216" width="280" height="15" as="geometry" />
        </mxCell>
        <mxCell id="OdlJfJ64PCM52wQeaOQS-6" value="&lt;font style=&quot;font-size: 10px;&quot;&gt;&lt;b&gt;AppSync&lt;br&gt;GraphQL Api&lt;/b&gt;&lt;/font&gt;" style="sketch=0;points=[[0,0,0],[0.25,0,0],[0.5,0,0],[0.75,0,0],[1,0,0],[0,1,0],[0.25,1,0],[0.5,1,0],[0.75,1,0],[1,1,0],[0,0.25,0],[0,0.5,0],[0,0.75,0],[1,0.25,0],[1,0.5,0],[1,0.75,0]];outlineConnect=0;fontColor=#232F3E;gradientColor=#FF4F8B;gradientDirection=north;fillColor=#BC1356;strokeColor=#ffffff;dashed=0;verticalLabelPosition=bottom;verticalAlign=top;align=center;html=1;fontSize=12;fontStyle=0;shape=mxgraph.aws4.resourceIcon;resIcon=mxgraph.aws4.appsync;" vertex="1" parent="1">
          <mxGeometry x="320" y="230" width="50" height="57" as="geometry" />
        </mxCell>
        <mxCell id="OdlJfJ64PCM52wQeaOQS-10" value="CloudFront&lt;br&gt;distribution" style="sketch=0;points=[[0,0,0],[0.25,0,0],[0.5,0,0],[0.75,0,0],[1,0,0],[0,1,0],[0.25,1,0],[0.5,1,0],[0.75,1,0],[1,1,0],[0,0.25,0],[0,0.5,0],[0,0.75,0],[1,0.25,0],[1,0.5,0],[1,0.75,0]];outlineConnect=0;fontColor=#232F3E;gradientColor=#945DF2;gradientDirection=north;fillColor=#5A30B5;strokeColor=#ffffff;dashed=0;verticalLabelPosition=bottom;verticalAlign=top;align=center;html=1;fontSize=12;fontStyle=0;shape=mxgraph.aws4.resourceIcon;resIcon=mxgraph.aws4.cloudfront;" vertex="1" parent="1">
          <mxGeometry x="134" y="230" width="50" height="57" as="geometry" />
        </mxCell>
        <mxCell id="OdlJfJ64PCM52wQeaOQS-11" value="Api Gateway" style="sketch=0;points=[[0,0,0],[0.25,0,0],[0.5,0,0],[0.75,0,0],[1,0,0],[0,1,0],[0.25,1,0],[0.5,1,0],[0.75,1,0],[1,1,0],[0,0.25,0],[0,0.5,0],[0,0.75,0],[1,0.25,0],[1,0.5,0],[1,0.75,0]];outlineConnect=0;fontColor=#232F3E;gradientColor=#945DF2;gradientDirection=north;fillColor=#5A30B5;strokeColor=#ffffff;dashed=0;verticalLabelPosition=bottom;verticalAlign=top;align=center;html=1;fontSize=12;fontStyle=0;shape=mxgraph.aws4.resourceIcon;resIcon=mxgraph.aws4.api_gateway;" vertex="1" parent="1">
          <mxGeometry x="229" y="230" width="50" height="57" as="geometry" />
        </mxCell>
        <mxCell id="OdlJfJ64PCM52wQeaOQS-12" value="&lt;font color=&quot;#000000&quot; style=&quot;font-size: 12px;&quot;&gt;Application Load&amp;nbsp;&amp;nbsp;&lt;br&gt;Balancer&lt;/font&gt;" style="outlineConnect=0;dashed=0;verticalLabelPosition=bottom;verticalAlign=top;align=center;html=1;shape=mxgraph.aws3.application_load_balancer;fillColor=#F58534;gradientColor=none;fontSize=10;fontColor=#FF3333;" vertex="1" parent="1">
          <mxGeometry x="410" y="230" width="50" height="55" as="geometry" />
        </mxCell>
        <mxCell id="OdlJfJ64PCM52wQeaOQS-13" value="" style="endArrow=none;html=1;rounded=0;" edge="1" parent="1">
          <mxGeometry width="50" height="50" relative="1" as="geometry">
            <mxPoint x="255" y="229" as="sourcePoint" />
            <mxPoint x="255" y="215" as="targetPoint" />
          </mxGeometry>
        </mxCell>
        <mxCell id="OdlJfJ64PCM52wQeaOQS-14" value="" style="endArrow=none;html=1;rounded=0;" edge="1" parent="1">
          <mxGeometry width="50" height="50" relative="1" as="geometry">
            <mxPoint x="344" y="230" as="sourcePoint" />
            <mxPoint x="344" y="216" as="targetPoint" />
          </mxGeometry>
        </mxCell>
        <mxCell id="OdlJfJ64PCM52wQeaOQS-15" value="" style="rounded=0;whiteSpace=wrap;html=1;fontSize=12;fontColor=#000000;fillColor=none;strokeWidth=2;" vertex="1" parent="1">
          <mxGeometry x="303" y="155" width="72" height="15" as="geometry" />
        </mxCell>
        <mxCell id="OdlJfJ64PCM52wQeaOQS-16" value="" style="endArrow=none;html=1;rounded=0;fontSize=12;fontColor=#000000;" edge="1" parent="1">
          <mxGeometry width="50" height="50" relative="1" as="geometry">
            <mxPoint x="330.5" y="217" as="sourcePoint" />
            <mxPoint x="330.5" y="171" as="targetPoint" />
          </mxGeometry>
        </mxCell>
        <mxCell id="OdlJfJ64PCM52wQeaOQS-17" value="&lt;div style=&quot;text-align: left;&quot;&gt;&lt;span style=&quot;background-color: initial;&quot;&gt;Lets control the access to your context based on criteria&amp;nbsp;&lt;/span&gt;&lt;/div&gt;&lt;div style=&quot;text-align: left;&quot;&gt;&lt;span style=&quot;background-color: initial;&quot;&gt;that&amp;nbsp; you specify(i.e: IPaddress)&lt;/span&gt;&lt;/div&gt;&lt;div style=&quot;text-align: left;&quot;&gt;&lt;span style=&quot;background-color: initial;&quot;&gt;&lt;b&gt;So depending if it matchs the rules your request can&amp;nbsp;&lt;/b&gt;&lt;/span&gt;&lt;/div&gt;&lt;div style=&quot;text-align: left;&quot;&gt;&lt;span style=&quot;background-color: initial;&quot;&gt;&lt;b&gt;be bocked or not&lt;/b&gt;&lt;/span&gt;&lt;/div&gt;" style="text;html=1;align=center;verticalAlign=middle;resizable=0;points=[];autosize=1;strokeColor=none;fillColor=none;fontSize=12;fontColor=#000000;" vertex="1" parent="1">
          <mxGeometry x="319" y="25" width="330" height="70" as="geometry" />
        </mxCell>
        <mxCell id="OdlJfJ64PCM52wQeaOQS-18" value="&lt;div style=&quot;text-align: left;&quot;&gt;&lt;span style=&quot;color: rgb(0, 0, 0); background-color: initial;&quot;&gt;&lt;b&gt;Web&amp;nbsp; ACL&lt;/b&gt;&lt;/span&gt;&lt;/div&gt;&lt;font color=&quot;#000000&quot;&gt;&lt;b&gt;&lt;div style=&quot;text-align: left;&quot;&gt;&lt;span style=&quot;background-color: initial;&quot;&gt;Rules&lt;/span&gt;&lt;/div&gt;&lt;div style=&quot;text-align: left;&quot;&gt;&lt;span style=&quot;background-color: initial;&quot;&gt;Rules Group&lt;/span&gt;&lt;/div&gt;&lt;/b&gt;&lt;/font&gt;" style="text;html=1;align=center;verticalAlign=middle;resizable=0;points=[];autosize=1;strokeColor=none;fillColor=none;fontSize=12;fontColor=#FF3333;" vertex="1" parent="1">
          <mxGeometry x="165" y="59" width="100" height="60" as="geometry" />
        </mxCell>
        <mxCell id="OdlJfJ64PCM52wQeaOQS-21" value="" style="strokeWidth=1;html=1;shape=mxgraph.flowchart.annotation_1;align=left;pointerEvents=1;fontColor=#000033;fillColor=none;strokeColor=#3399FF;" vertex="1" parent="1">
          <mxGeometry x="178" y="68" width="12" height="41" as="geometry" />
        </mxCell>
        <mxCell id="OdlJfJ64PCM52wQeaOQS-22" value="" style="strokeWidth=1;html=1;shape=mxgraph.flowchart.annotation_1;align=left;pointerEvents=1;fontColor=#000033;fillColor=none;direction=west;strokeColor=#3399FF;" vertex="1" parent="1">
          <mxGeometry x="238" y="67" width="12" height="41" as="geometry" />
        </mxCell>
        <mxCell id="OdlJfJ64PCM52wQeaOQS-24" value="" style="strokeWidth=1;html=1;shape=mxgraph.flowchart.annotation_1;align=left;pointerEvents=1;fontColor=#000033;fillColor=none;strokeColor=#3399FF;" vertex="1" parent="1">
          <mxGeometry x="331" y="29" width="12" height="58" as="geometry" />
        </mxCell>
        <mxCell id="OdlJfJ64PCM52wQeaOQS-25" value="" style="strokeWidth=1;html=1;shape=mxgraph.flowchart.annotation_1;align=left;pointerEvents=1;fontColor=#000033;fillColor=none;direction=west;strokeColor=#3399FF;" vertex="1" parent="1">
          <mxGeometry x="623" y="29" width="12" height="58" as="geometry" />
        </mxCell>
        <mxCell id="OdlJfJ64PCM52wQeaOQS-26" value="&lt;div style=&quot;text-align: left;&quot;&gt;&lt;span style=&quot;background-color: initial;&quot;&gt;&lt;b&gt;&lt;font color=&quot;#ff3333&quot;&gt;CloudFront can be configured with a custom error&amp;nbsp;&lt;/font&gt;&lt;/b&gt;&lt;/span&gt;&lt;/div&gt;&lt;div style=&quot;text-align: left;&quot;&gt;&lt;span style=&quot;background-color: initial;&quot;&gt;&lt;b&gt;&lt;font color=&quot;#ff3333&quot;&gt;page in case of&amp;nbsp;&lt;/font&gt;&lt;/b&gt;&lt;/span&gt;&lt;b style=&quot;background-color: initial;&quot;&gt;&lt;font color=&quot;#ff3333&quot;&gt;request blocked&lt;/font&gt;&lt;/b&gt;&lt;span style=&quot;background-color: initial;&quot;&gt;&amp;nbsp;&lt;/span&gt;&lt;/div&gt;" style="text;html=1;align=center;verticalAlign=middle;resizable=0;points=[];autosize=1;strokeColor=none;fillColor=none;fontSize=12;fontColor=#000000;" vertex="1" parent="1">
          <mxGeometry x="324" y="85" width="310" height="40" as="geometry" />
        </mxCell>
      </root>
    </mxGraphModel>
  </diagram>
</mxfile>
